<?xml version="1.0" standalone="no"?>
<svg version="1.0" xmlns="http://www.w3.org/2000/svg"
 width="64.000000pt" height="64.000000pt" viewBox="0 0 64.000000 64.000000">
<g transform="translate(0.000000,64.000000) scale(0.100000,-0.100000)"
fill="#256aff" stroke="none">
<path d="M26 538 c-23 -33 -23 -403 0 -436 15 -22 17 -22 294 -22 277 0 279 0
294 22 23 33 23 403 0 436 -15 22 -17 22 -294 22 -277 0 -279 0 -294 -22z
m134 -33 c0 -24 -3 -25 -60 -25 -52 0 -60 3 -60 18 0 28 9 32 67 32 50 0 53
-1 53 -25z m150 0 c0 -24 -3 -25 -60 -25 -57 0 -60 1 -60 25 0 24 3 25 60 25
57 0 60 -1 60 -25z m140 0 c0 -24 -3 -25 -60 -25 -57 0 -60 1 -60 25 0 24 3
25 60 25 57 0 60 -1 60 -25z m148 -2 c3 -22 0 -23 -57 -23 -59 0 -61 1 -61 25
0 25 2 26 58 23 50 -3 57 -6 60 -25z m2 -183 l0 -130 -280 0 -280 0 0 130 0
130 280 0 280 0 0 -130z m-440 -185 c0 -25 -2 -26 -57 -23 -51 3 -58 6 -61 26
-3 21 0 22 57 22 59 0 61 -1 61 -25z m150 0 c0 -24 -3 -25 -60 -25 -57 0 -60
1 -60 25 0 24 3 25 60 25 57 0 60 -1 60 -25z m140 0 c0 -24 -3 -25 -60 -25
-57 0 -60 1 -60 25 0 24 3 25 60 25 57 0 60 -1 60 -25z m148 3 c-3 -20 -10
-23 -60 -26 -56 -3 -58 -2 -58 23 0 24 2 25 61 25 57 0 60 -1 57 -22z"/>
<path d="M270 320 c0 -44 3 -80 6 -80 13 0 124 72 124 80 0 8 -111 80 -124 80
-3 0 -6 -36 -6 -80z"/>
</g>
</svg>
