<?xml version="1.0" standalone="no"?>
<svg version="1.0" xmlns="http://www.w3.org/2000/svg"
 width="32pt" height="32pt" viewBox="0 0 512.000000 512.000000">
<g transform="translate(0.000000,512.000000) scale(0.100000,-0.100000)"
fill="#256aff" stroke="none">
<path d="M2330 5106 c-239 -32 -408 -83 -625 -192 -383 -191 -668 -476 -859
-859 -85 -170 -127 -288 -162 -450 -102 -484 -17 -988 236 -1398 90 -146 1524
-2160 1553 -2181 40 -29 134 -29 174 0 30 22 1488 2073 1566 2203 203 337 297
762 257 1162 -24 232 -86 444 -196 664 -151 305 -365 550 -643 736 -232 156
-477 254 -766 304 -125 22 -404 28 -535 11z m365 -1281 c88 -18 215 -82 284
-142 230 -201 287 -540 134 -803 -137 -235 -420 -362 -684 -306 -410 87 -627
538 -439 912 132 261 418 399 705 339z"/>
</g>
</svg>
