<?xml version="1.0" standalone="no"?>
<svg version="1.0" xmlns="http://www.w3.org/2000/svg"
 width="512.000000pt" height="512.000000pt" viewBox="0 0 512.000000 512.000000">
<g transform="translate(0.000000,512.000000) scale(0.100000,-0.100000)"
fill="#256aff" stroke="none">
<path d="M685 4428 c-3 -7 -4 -852 -3 -1878 l3 -1865 1875 0 1875 0 3 938 2
937 -190 0 -190 0 0 -750 0 -750 -1500 0 -1500 0 0 1500 0 1500 750 0 750 0 0
190 0 190 -935 0 c-739 0 -937 -3 -940 -12z"/>
<path d="M3210 4165 l265 -265 -528 -528 c-290 -290 -527 -532 -527 -537 0 -6
92 -102 205 -215 l205 -205 210 210 c116 116 353 353 528 528 174 174 321 317
327 317 5 0 130 -120 277 -267 l268 -268 0 748 0 747 -747 0 -748 0 265 -265z"/>
</g>
</svg>
