<?xml version="1.0" standalone="no"?>
<svg version="1.0" xmlns="http://www.w3.org/2000/svg"
 width="64.000000pt" height="64.000000pt" viewBox="0 0 64.000000 64.000000">
<g transform="translate(0.000000,64.000000) scale(0.100000,-0.100000)"
fill="#256aff" stroke="none">
<path d="M257 584 c-4 -4 -7 -22 -7 -40 0 -23 -7 -36 -26 -49 -23 -15 -29 -15
-64 -1 l-39 15 -32 -56 -32 -56 32 -26 c20 -17 31 -35 31 -51 0 -16 -11 -34
-31 -51 l-32 -26 32 -56 32 -57 36 15 c19 8 38 15 42 15 20 -1 45 -35 50 -67
l6 -38 65 0 65 0 6 38 c5 32 30 66 50 67 4 0 23 -7 42 -15 l36 -15 32 56 32
56 -32 25 c-42 33 -42 73 0 106 l32 25 -32 56 -32 55 -39 -15 c-35 -14 -41
-14 -64 1 -18 12 -26 27 -28 53 l-3 37 -60 3 c-34 2 -64 0 -68 -4z m128 -199
c36 -35 35 -97 -1 -130 -61 -57 -154 -17 -154 65 0 56 34 90 90 90 30 0 47 -6
65 -25z"/>
</g>
</svg>
