<?xml version="1.0" standalone="no"?>
<svg version="1.0" xmlns="http://www.w3.org/2000/svg"
 width="225.000000pt" height="225.000000pt" viewBox="0 0 225.000000 225.000000">
<g transform="translate(0.000000,225.000000) scale(0.100000,-0.100000)"
fill="#256aff" stroke="none">
<path d="M658 1920 l-93 -139 -156 -1 c-177 0 -234 -12 -301 -63 -27 -20 -54
-55 -73 -92 l-30 -59 0 -580 0 -581 28 -57 c30 -61 64 -95 131 -131 l41 -22
900 -3 c1001 -3 963 -5 1044 65 22 18 52 59 68 91 l28 57 0 580 c0 570 0 581
-21 626 -27 58 -85 116 -143 143 -40 18 -68 21 -221 24 l-175 4 -93 139 -92
139 -375 0 -375 0 -92 -140z m837 -180 l90 -140 193 0 c205 0 250 -8 271 -48
8 -14 11 -196 11 -571 l0 -550 -24 -28 -24 -28 -887 0 -887 0 -24 28 -24 28 0
550 c0 375 3 557 11 571 21 40 66 48 271 48 l193 1 93 139 92 140 278 0 277
-1 90 -139z"/>
<path d="M1035 1488 c-81 -15 -174 -66 -236 -128 -230 -229 -165 -608 128
-748 77 -36 80 -37 198 -37 118 0 121 1 198 37 293 140 358 519 128 748 -64
65 -156 113 -245 129 -69 13 -101 12 -171 -1z m205 -199 c58 -26 105 -72 138
-134 22 -41 27 -63 26 -125 0 -64 -4 -83 -29 -129 -54 -97 -142 -151 -250
-151 -108 0 -196 54 -250 151 -25 46 -29 65 -29 129 -1 62 4 84 26 125 55 104
138 155 253 155 49 0 84 -7 115 -21z"/>
</g>
</svg>
