<?xml version="1.0" standalone="no"?>
<svg version="1.0" xmlns="http://www.w3.org/2000/svg"
 width="32pt" height="32pt" viewBox="0 0 512.000000 512.000000">
<g transform="translate(0.000000,512.000000) scale(0.100000,-0.100000)"
fill="#256aff" stroke="none">
<path d="M2050 4900 c-844 -5 -909 -6 -960 -24 -95 -31 -182 -87 -261 -166
-60 -60 -85 -94 -117 -161 -72 -151 -67 -4 -67 -1999 0 -1722 1 -1808 18
-1864 57 -185 167 -318 330 -402 144 -74 33 -69 1577 -69 l1385 0 76 27 c205
72 354 221 422 420 l22 63 3 1360 c2 994 0 1371 -8 1400 -10 34 -112 140 -673
703 -364 365 -680 674 -702 687 -22 13 -62 25 -90 27 -27 2 -457 1 -955 -2z
m720 -944 c0 -312 4 -545 10 -577 14 -72 51 -123 113 -154 l51 -25 558 0 558
0 0 -1170 c0 -785 -3 -1185 -11 -1218 -12 -59 -63 -124 -120 -152 -37 -20 -66
-20 -1364 -20 -1176 0 -1330 2 -1363 16 -47 19 -88 58 -113 106 -19 37 -19 80
-17 1805 l3 1768 30 45 c20 29 48 54 84 72 l53 28 764 0 764 0 0 -524z m970
-328 c0 -5 -121 -8 -270 -8 l-270 0 0 277 0 278 270 -270 c149 -148 270 -273
270 -277z"/>
<path d="M1613 3385 c-77 -39 -114 -98 -115 -185 0 -85 44 -157 117 -191 36
-17 69 -19 308 -19 227 0 273 2 300 16 148 75 164 274 29 369 l-44 30 -271 3
-272 3 -52 -26z"/>
<path d="M1651 2550 c-41 -10 -75 -35 -115 -83 -22 -28 -30 -50 -34 -91 -7
-82 4 -119 49 -170 71 -80 22 -77 1035 -74 994 3 915 -3 986 76 92 102 60 261
-66 330 -28 16 -109 17 -926 19 -492 0 -910 -2 -929 -7z"/>
<path d="M1615 1681 c-80 -36 -120 -111 -113 -211 5 -77 42 -130 111 -165 l51
-25 895 0 896 0 52 24 c155 73 156 298 2 376 -37 19 -62 20 -946 20 -859 0
-910 -1 -948 -19z"/>
</g>
</svg>
