<?xml version="1.0" standalone="no"?>
<!DOCTYPE svg PUBLIC "-//W3C//DTD SVG 20010904//EN"
 "http://www.w3.org/TR/2001/REC-SVG-20010904/DTD/svg10.dtd">
<svg version="1.0" xmlns="http://www.w3.org/2000/svg"
 width="64.000000pt" height="64.000000pt" viewBox="0 0 64.000000 64.000000"
 preserveAspectRatio="xMidYMid meet">

<g transform="translate(0.000000,64.000000) scale(0.100000,-0.100000)"
fill="#256aff" stroke="none">
<path d="M52 548 c-17 -17 -17 -439 0 -456 17 -17 519 -17 536 0 17 17 17 439
0 456 -17 17 -519 17 -536 0z m506 -198 l3 -165 -70 69 -69 68 -31 -18 -32
-19 -45 48 c-25 26 -51 47 -57 47 -7 0 -48 -44 -92 -97 l-80 -97 -3 154 c-1
85 0 160 2 167 4 11 54 13 238 11 l233 -3 3 -165z"/>
<path d="M420 460 c-11 -11 -20 -29 -20 -40 0 -11 9 -29 20 -40 11 -11 29 -20
40 -20 26 0 60 34 60 60 0 11 -9 29 -20 40 -11 11 -29 20 -40 20 -11 0 -29 -9
-40 -20z"/>
</g>
</svg>
