<?xml version="1.0" standalone="no"?>
<!DOCTYPE svg PUBLIC "-//W3C//DTD SVG 20010904//EN"
 "http://www.w3.org/TR/2001/REC-SVG-20010904/DTD/svg10.dtd">
<svg version="1.0" xmlns="http://www.w3.org/2000/svg"
 width="452.000000pt" height="452.000000pt" viewBox="0 0 452.000000 452.000000"
 preserveAspectRatio="xMidYMid meet">

<g transform="translate(0.000000,452.000000) scale(0.100000,-0.100000)"
fill="#256aff" stroke="none">
<path d="M1410 3745 l0 -495 145 0 145 0 0 350 0 350 140 0 140 0 0 -70 0 -70
140 0 140 0 0 70 0 70 635 0 635 0 0 -70 0 -70 140 0 140 0 0 70 0 70 145 0
145 0 0 -845 0 -845 -145 0 -145 0 0 70 0 70 -140 0 -140 0 0 -210 0 -210 425
0 425 0 0 1130 0 1130 -1485 0 -1485 0 0 -495z"/>
<path d="M1980 3390 l0 -140 140 0 140 0 0 140 0 140 -140 0 -140 0 0 -140z"/>
<path d="M3530 3390 l0 -140 140 0 140 0 0 140 0 140 -140 0 -140 0 0 -140z"/>
<path d="M285 2958 c-3 -7 -4 -580 -3 -1273 l3 -1260 1483 -3 1482 -2 0 1275
0 1275 -1480 0 c-1175 0 -1482 -3 -1485 -12z m2685 -963 c0 -377 -3 -685 -7
-685 -5 0 -110 102 -235 227 l-228 228 -198 -198 -199 -199 -351 354 -351 353
-416 -415 -415 -415 0 718 0 717 1200 0 1200 0 0 -685z m-1215 -675 l349 -349
190 194 c104 107 194 195 200 195 6 0 116 -105 243 -232 l233 -233 0 -92 0
-93 -1200 0 -1200 0 0 67 0 68 412 412 c227 227 415 413 418 413 3 0 162 -157
355 -350z"/>
<path d="M2105 2381 c-158 -73 -168 -292 -17 -374 140 -76 312 24 312 183 0
150 -160 253 -295 191z"/>
<path d="M3530 2825 l0 -145 140 0 140 0 0 145 0 145 -140 0 -140 0 0 -145z"/>
</g>
</svg>
