<?xml version="1.0" standalone="no"?>
<!DOCTYPE svg PUBLIC "-//W3C//DTD SVG 20010904//EN"
 "http://www.w3.org/TR/2001/REC-SVG-20010904/DTD/svg10.dtd">
<svg version="1.0" xmlns="http://www.w3.org/2000/svg"
 width="2000.000000pt" height="2000.000000pt" viewBox="0 0 2000.000000 2000.000000"
 preserveAspectRatio="xMidYMid meet">

<g transform="translate(0.000000,2000.000000) scale(0.100000,-0.100000)"
fill="#256aff" stroke="none">
<path d="M19875 15346 c-40 -18 -3202 -1806 -4345 -2456 -151 -86 -276 -154
-277 -151 -1 3 -7 161 -12 351 -11 390 -19 441 -97 680 -162 494 -499 916
-944 1182 -179 107 -377 186 -640 255 l-105 28 -5929 3 -5928 2 -117 -26
c-254 -56 -531 -166 -723 -287 -298 -189 -558 -459 -727 -758 l-31 -56 0
-4114 0 -4115 55 -92 c316 -536 876 -913 1511 -1018 91 -15 519 -17 5104 -21
2753 -2 5399 0 5880 5 l875 10 115 25 c326 70 642 219 904 424 107 84 302 286
385 400 187 254 338 600 386 878 14 78 30 372 38 681 l2 91 1740 -986 c2950
-1671 2896 -1641 2960 -1649 l45 -5 0 5295 c0 2912 -3 5329 -6 5371 l-7 77
-31 0 c-17 0 -53 -11 -81 -24z m-6603 -1878 c68 -32 147 -103 184 -165 26 -44
26 -46 34 -346 12 -385 12 -5523 1 -5919 -8 -283 -10 -299 -31 -335 -31 -51
-85 -108 -139 -145 -41 -29 -53 -32 -180 -42 -193 -15 -11089 -15 -11282 0
-127 10 -139 13 -180 42 -54 37 -108 94 -138 145 -22 36 -24 52 -32 330 -11
387 -11 5538 1 5924 8 300 8 302 34 346 33 55 109 127 167 159 l44 23 810 6
c446 3 3024 5 5730 4 l4920 0 57 -27z m5223 -990 c8 -91 2 -5014 -6 -5022 -3
-3 -332 179 -730 405 -398 225 -1123 636 -1611 912 l-887 502 -1 725 0 725
1258 712 c691 392 1415 803 1607 912 193 110 353 200 357 200 3 1 9 -32 13
-71z"/>
</g>
</svg>
