<?xml version="1.0" standalone="no"?>
<!DOCTYPE svg PUBLIC "-//W3C//DTD SVG 20010904//EN"
 "http://www.w3.org/TR/2001/REC-SVG-20010904/DTD/svg10.dtd">
<svg version="1.0" xmlns="http://www.w3.org/2000/svg"
 width="512.000000pt" height="512.000000pt" viewBox="0 0 512.000000 512.000000"
 preserveAspectRatio="xMidYMid meet">
<metadata>
Created by potrace 1.16, written by Peter Selinger 2001-2019
</metadata>
<g transform="translate(0.000000,512.000000) scale(0.100000,-0.100000)"
fill="#256aff" stroke="none">
<path d="M2460 4570 c-19 -10 -265 -250 -546 -532 -558 -560 -540 -537 -532
-649 10 -145 164 -233 304 -174 26 11 134 111 346 322 l307 307 3 -885 c3
-883 3 -884 25 -924 42 -79 105 -115 198 -115 93 0 169 53 200 139 13 38 15
156 15 914 l0 871 308 -305 c192 -191 321 -312 345 -323 75 -34 187 -17 246
37 59 55 80 181 42 255 -24 46 -1024 1044 -1068 1066 -45 22 -148 20 -193 -4z"/>
<path d="M685 2233 c-56 -29 -95 -75 -111 -130 -13 -45 -15 -117 -12 -465 4
-399 5 -415 27 -482 35 -105 77 -174 155 -251 81 -80 159 -125 267 -155 75
-20 85 -20 1570 -18 l1494 3 62 22 c201 73 341 226 393 429 18 71 20 112 20
489 l0 411 -25 51 c-16 32 -41 61 -67 79 -37 26 -49 29 -124 29 -75 0 -86 -3
-125 -30 -23 -16 -53 -50 -66 -74 -23 -44 -23 -45 -23 -436 l0 -391 -25 -50
c-14 -28 -40 -59 -62 -74 l-37 -25 -1428 -3 c-1412 -2 -1429 -2 -1468 18 -21
11 -51 36 -67 57 l-28 36 -5 411 c-4 275 -9 419 -17 437 -19 44 -66 91 -108
110 -50 23 -148 24 -190 2z"/>
</g>
</svg>
